<svg width="51" height="56" viewBox="0 0 51 56" fill="none" xmlns="http://www.w3.org/2000/svg">
<path d="M50.375 16.0602C50.3785 15.3885 50.203 14.7281 49.8664 14.1469H49.8422C49.4988 13.5457 48.9959 13.0512 48.3891 12.718L27.0766 0.729686C26.4991 0.40729 25.8488 0.238037 25.1875 0.238037C24.5262 0.238037 23.8759 0.40729 23.2984 0.729686L1.98594 12.718C1.38415 13.058 0.882868 13.5509 0.532813 14.1469C0.532813 14.1533 0.530261 14.1595 0.525719 14.164C0.521177 14.1685 0.515017 14.1711 0.508594 14.1711V14.2195C0.177956 14.7767 0.00235748 15.4122 0 16.0602V39.9398C0.00122452 40.6302 0.185723 41.3079 0.534641 41.9036C0.88356 42.4993 1.38439 42.9917 1.98594 43.3305L23.2984 55.3187C23.835 55.6114 24.4315 55.7771 25.0422 55.8031H25.357C25.96 55.7769 26.5486 55.6111 27.0766 55.3187L48.3891 43.3305C48.9906 42.9917 49.4914 42.4993 49.8404 41.9036C50.1893 41.3079 50.3738 40.6302 50.375 39.9398V16.0602ZM34.875 34.2727V46.4789L27.1492 50.8383L27.343 29.1383L46.5 18.2398V26.5953L35.868 32.6016C35.5683 32.766 35.3181 33.0077 35.1435 33.3016C34.9688 33.5955 34.8761 33.9308 34.875 34.2727ZM14.507 32.6016L3.875 26.5953V18.2156L23.468 29.1383L23.2742 50.8625L15.5 46.4789V34.2727C15.4989 33.9308 15.4062 33.5955 15.2315 33.3016C15.0569 33.0077 14.8067 32.766 14.507 32.6016ZM13.3203 10.732L24.243 16.8594C24.5276 17.0326 24.8543 17.1243 25.1875 17.1243C25.5207 17.1243 25.8474 17.0326 26.132 16.8594L37.0547 10.732L44.4898 14.9219L25.4055 25.7719L5.90938 14.9219L13.3203 10.732ZM25.1875 4.07187L33.0828 8.5039L25.1875 12.9602L17.2922 8.5039L25.1875 4.07187ZM3.875 31.0516L11.625 35.4109V44.2992L3.875 39.9398V31.0516ZM38.75 44.2992V35.4109L46.5 31.0516V39.9398L38.75 44.2992Z" fill="black"/>
</svg>
